<mxfile host="app.diagrams.net" modified="2022-01-28T16:24:50.221Z" agent="5.0 (Windows NT 10.0; Win64; x64) AppleWebKit/537.36 (KHTML, like Gecko) Chrome/97.0.4692.99 Safari/537.36 Edg/97.0.1072.69" etag="hF_D1rGrX85RcUq69_QO" version="16.5.0" type="github">
  <diagram name="Page-1" id="2cc2dc42-3aac-f2a9-1cec-7a8b7cbee084">
    <mxGraphModel dx="770" dy="501" grid="1" gridSize="10" guides="1" tooltips="1" connect="1" arrows="1" fold="1" page="1" pageScale="1" pageWidth="1100" pageHeight="850" background="none" math="0" shadow="0">
      <root>
        <mxCell id="0" />
        <mxCell id="1" parent="0" />
        <mxCell id="7026571954dc6520-1" value="" style="strokeWidth=1;shadow=0;dashed=0;align=center;html=1;shape=mxgraph.mockup.containers.browserWindow;rSize=0;strokeColor=#666666;mainText=,;recursiveResize=0;rounded=0;labelBackgroundColor=none;fontFamily=Verdana;fontSize=12" parent="1" vertex="1">
          <mxGeometry x="120" y="60" width="1050" height="1120" as="geometry" />
        </mxCell>
        <mxCell id="7026571954dc6520-2" value="Page 1" style="strokeWidth=1;shadow=0;dashed=0;align=center;html=1;shape=mxgraph.mockup.containers.anchor;fontSize=17;fontColor=#666666;align=left;" parent="7026571954dc6520-1" vertex="1">
          <mxGeometry x="60" y="12" width="110" height="26" as="geometry" />
        </mxCell>
        <mxCell id="7026571954dc6520-3" value="https://www.default.com" style="strokeWidth=1;shadow=0;dashed=0;align=center;html=1;shape=mxgraph.mockup.containers.anchor;rSize=0;fontSize=17;fontColor=#666666;align=left;" parent="7026571954dc6520-1" vertex="1">
          <mxGeometry x="130" y="60" width="250" height="26" as="geometry" />
        </mxCell>
        <mxCell id="LoF7N9ZbmjchOXrET8C3-100" value="Search" style="strokeWidth=1;shadow=0;dashed=0;align=center;html=1;shape=mxgraph.mockup.forms.searchBox;strokeColor=#999999;mainText=;strokeColor2=#008cff;fontColor=#666666;fontSize=17;align=left;spacingLeft=3;rounded=0;labelBackgroundColor=none;" parent="7026571954dc6520-1" vertex="1">
          <mxGeometry x="350" y="280" width="220" height="30" as="geometry" />
        </mxCell>
        <mxCell id="LoF7N9ZbmjchOXrET8C3-102" value="Search" style="strokeWidth=1;shadow=0;dashed=0;align=center;html=1;shape=mxgraph.mockup.forms.searchBox;strokeColor=#999999;mainText=;strokeColor2=#008cff;fontColor=#666666;fontSize=17;align=left;spacingLeft=3;rounded=0;labelBackgroundColor=none;" parent="7026571954dc6520-1" vertex="1">
          <mxGeometry x="730" y="270" width="220" height="30" as="geometry" />
        </mxCell>
        <mxCell id="LoF7N9ZbmjchOXrET8C3-103" value="" style="shape=table;html=1;whiteSpace=wrap;startSize=0;container=1;collapsible=0;childLayout=tableLayout;" parent="7026571954dc6520-1" vertex="1">
          <mxGeometry x="10" y="365" width="960" height="120" as="geometry" />
        </mxCell>
        <mxCell id="LoF7N9ZbmjchOXrET8C3-104" value="" style="shape=tableRow;horizontal=0;startSize=0;swimlaneHead=0;swimlaneBody=0;top=0;left=0;bottom=0;right=0;collapsible=0;dropTarget=0;fillColor=none;points=[[0,0.5],[1,0.5]];portConstraint=eastwest;" parent="LoF7N9ZbmjchOXrET8C3-103" vertex="1">
          <mxGeometry width="960" height="40" as="geometry" />
        </mxCell>
        <mxCell id="LoF7N9ZbmjchOXrET8C3-105" value="&lt;font style=&quot;font-size: 16px&quot;&gt;ID encontrado 1&lt;/font&gt;" style="shape=partialRectangle;html=1;whiteSpace=wrap;connectable=0;fillColor=none;top=0;left=0;bottom=0;right=0;overflow=hidden;" parent="LoF7N9ZbmjchOXrET8C3-104" vertex="1">
          <mxGeometry width="321" height="40" as="geometry">
            <mxRectangle width="321" height="40" as="alternateBounds" />
          </mxGeometry>
        </mxCell>
        <mxCell id="LoF7N9ZbmjchOXrET8C3-106" value="&lt;font style=&quot;font-size: 16px&quot;&gt;Nombre1&lt;/font&gt;" style="shape=partialRectangle;html=1;whiteSpace=wrap;connectable=0;fillColor=none;top=0;left=0;bottom=0;right=0;overflow=hidden;" parent="LoF7N9ZbmjchOXrET8C3-104" vertex="1">
          <mxGeometry x="321" width="539" height="40" as="geometry">
            <mxRectangle width="539" height="40" as="alternateBounds" />
          </mxGeometry>
        </mxCell>
        <mxCell id="LoF7N9ZbmjchOXrET8C3-107" value="" style="shape=partialRectangle;html=1;whiteSpace=wrap;connectable=0;fillColor=none;top=0;left=0;bottom=0;right=0;overflow=hidden;" parent="LoF7N9ZbmjchOXrET8C3-104" vertex="1">
          <mxGeometry x="860" width="100" height="40" as="geometry">
            <mxRectangle width="100" height="40" as="alternateBounds" />
          </mxGeometry>
        </mxCell>
        <mxCell id="LoF7N9ZbmjchOXrET8C3-108" value="" style="shape=tableRow;horizontal=0;startSize=0;swimlaneHead=0;swimlaneBody=0;top=0;left=0;bottom=0;right=0;collapsible=0;dropTarget=0;fillColor=none;points=[[0,0.5],[1,0.5]];portConstraint=eastwest;" parent="LoF7N9ZbmjchOXrET8C3-103" vertex="1">
          <mxGeometry y="40" width="960" height="40" as="geometry" />
        </mxCell>
        <mxCell id="LoF7N9ZbmjchOXrET8C3-109" value="&lt;font style=&quot;font-size: 16px&quot;&gt;ID encontrado 2&lt;/font&gt;" style="shape=partialRectangle;html=1;whiteSpace=wrap;connectable=0;fillColor=none;top=0;left=0;bottom=0;right=0;overflow=hidden;" parent="LoF7N9ZbmjchOXrET8C3-108" vertex="1">
          <mxGeometry width="321" height="40" as="geometry">
            <mxRectangle width="321" height="40" as="alternateBounds" />
          </mxGeometry>
        </mxCell>
        <mxCell id="LoF7N9ZbmjchOXrET8C3-110" value="&lt;font style=&quot;font-size: 16px&quot;&gt;Nombre2&lt;/font&gt;" style="shape=partialRectangle;html=1;whiteSpace=wrap;connectable=0;fillColor=none;top=0;left=0;bottom=0;right=0;overflow=hidden;" parent="LoF7N9ZbmjchOXrET8C3-108" vertex="1">
          <mxGeometry x="321" width="539" height="40" as="geometry">
            <mxRectangle width="539" height="40" as="alternateBounds" />
          </mxGeometry>
        </mxCell>
        <mxCell id="LoF7N9ZbmjchOXrET8C3-111" value="" style="shape=partialRectangle;html=1;whiteSpace=wrap;connectable=0;fillColor=none;top=0;left=0;bottom=0;right=0;overflow=hidden;" parent="LoF7N9ZbmjchOXrET8C3-108" vertex="1">
          <mxGeometry x="860" width="100" height="40" as="geometry">
            <mxRectangle width="100" height="40" as="alternateBounds" />
          </mxGeometry>
        </mxCell>
        <mxCell id="LoF7N9ZbmjchOXrET8C3-112" style="shape=tableRow;horizontal=0;startSize=0;swimlaneHead=0;swimlaneBody=0;top=0;left=0;bottom=0;right=0;collapsible=0;dropTarget=0;fillColor=none;points=[[0,0.5],[1,0.5]];portConstraint=eastwest;" parent="LoF7N9ZbmjchOXrET8C3-103" vertex="1">
          <mxGeometry y="80" width="960" height="40" as="geometry" />
        </mxCell>
        <mxCell id="LoF7N9ZbmjchOXrET8C3-113" value="&lt;span&gt;&lt;font style=&quot;font-size: 16px&quot;&gt;ID encontrado 3&lt;/font&gt;&lt;/span&gt;" style="shape=partialRectangle;html=1;whiteSpace=wrap;connectable=0;fillColor=none;top=0;left=0;bottom=0;right=0;overflow=hidden;" parent="LoF7N9ZbmjchOXrET8C3-112" vertex="1">
          <mxGeometry width="321" height="40" as="geometry">
            <mxRectangle width="321" height="40" as="alternateBounds" />
          </mxGeometry>
        </mxCell>
        <mxCell id="LoF7N9ZbmjchOXrET8C3-114" value="&lt;font style=&quot;font-size: 16px&quot;&gt;Nombre3&lt;/font&gt;" style="shape=partialRectangle;html=1;whiteSpace=wrap;connectable=0;fillColor=none;top=0;left=0;bottom=0;right=0;overflow=hidden;" parent="LoF7N9ZbmjchOXrET8C3-112" vertex="1">
          <mxGeometry x="321" width="539" height="40" as="geometry">
            <mxRectangle width="539" height="40" as="alternateBounds" />
          </mxGeometry>
        </mxCell>
        <mxCell id="LoF7N9ZbmjchOXrET8C3-115" style="shape=partialRectangle;html=1;whiteSpace=wrap;connectable=0;fillColor=none;top=0;left=0;bottom=0;right=0;overflow=hidden;" parent="LoF7N9ZbmjchOXrET8C3-112" vertex="1">
          <mxGeometry x="860" width="100" height="40" as="geometry">
            <mxRectangle width="100" height="40" as="alternateBounds" />
          </mxGeometry>
        </mxCell>
        <mxCell id="LoF7N9ZbmjchOXrET8C3-128" value="Ver detalles" style="labelPosition=center;verticalLabelPosition=middle;align=center;html=1;shape=mxgraph.basic.shaded_button;dx=10;fillColor=#E6E6E6;strokeColor=none;" parent="7026571954dc6520-1" vertex="1">
          <mxGeometry x="870" y="365" width="100" height="40" as="geometry" />
        </mxCell>
        <mxCell id="LoF7N9ZbmjchOXrET8C3-129" value="Ver detalles" style="labelPosition=center;verticalLabelPosition=middle;align=center;html=1;shape=mxgraph.basic.shaded_button;dx=10;fillColor=#E6E6E6;strokeColor=none;" parent="7026571954dc6520-1" vertex="1">
          <mxGeometry x="870" y="445" width="100" height="40" as="geometry" />
        </mxCell>
        <mxCell id="LoF7N9ZbmjchOXrET8C3-130" value="Ver detalles" style="labelPosition=center;verticalLabelPosition=middle;align=center;html=1;shape=mxgraph.basic.shaded_button;dx=10;fillColor=#E6E6E6;strokeColor=none;" parent="7026571954dc6520-1" vertex="1">
          <mxGeometry x="870" y="405" width="100" height="40" as="geometry" />
        </mxCell>
        <mxCell id="LoF7N9ZbmjchOXrET8C3-267" value="Crear Nuevo" style="labelPosition=center;verticalLabelPosition=middle;align=center;html=1;shape=mxgraph.basic.shaded_button;dx=10;fillColor=#E6E6E6;strokeColor=none;fontSize=16;" parent="7026571954dc6520-1" vertex="1">
          <mxGeometry x="30" y="520" width="120" height="40" as="geometry" />
        </mxCell>
        <mxCell id="LoF7N9ZbmjchOXrET8C3-268" value="Cerrar sesion" style="labelPosition=center;verticalLabelPosition=middle;align=center;html=1;shape=mxgraph.basic.shaded_button;dx=10;fillColor=#E6E6E6;strokeColor=none;fontSize=16;" parent="7026571954dc6520-1" vertex="1">
          <mxGeometry x="830" y="120" width="120" height="50" as="geometry" />
        </mxCell>
        <mxCell id="jbLwAe7Ewo4H_VJlkpQP-1" value="&lt;font style=&quot;font-size: 16px&quot;&gt;Campo de busqueda 1&lt;/font&gt;" style="text;html=1;strokeColor=none;fillColor=none;align=center;verticalAlign=middle;whiteSpace=wrap;rounded=0;" parent="7026571954dc6520-1" vertex="1">
          <mxGeometry x="20" y="240" width="190" height="30" as="geometry" />
        </mxCell>
        <mxCell id="jbLwAe7Ewo4H_VJlkpQP-2" value="Pacientes" style="text;strokeColor=none;fillColor=none;html=1;fontSize=24;fontStyle=1;verticalAlign=middle;align=center;" parent="7026571954dc6520-1" vertex="1">
          <mxGeometry x="20" y="160" width="120" height="40" as="geometry" />
        </mxCell>
        <mxCell id="jbLwAe7Ewo4H_VJlkpQP-3" value="&lt;font style=&quot;font-size: 16px&quot;&gt;Campo de busqueda 2&lt;/font&gt;" style="text;html=1;strokeColor=none;fillColor=none;align=center;verticalAlign=middle;whiteSpace=wrap;rounded=0;" parent="7026571954dc6520-1" vertex="1">
          <mxGeometry x="350" y="240" width="170" height="30" as="geometry" />
        </mxCell>
        <mxCell id="jbLwAe7Ewo4H_VJlkpQP-4" value="&lt;font style=&quot;font-size: 16px&quot;&gt;Campo de busqueda 3&lt;/font&gt;" style="text;html=1;strokeColor=none;fillColor=none;align=center;verticalAlign=middle;whiteSpace=wrap;rounded=0;" parent="7026571954dc6520-1" vertex="1">
          <mxGeometry x="730" y="230" width="170" height="30" as="geometry" />
        </mxCell>
        <mxCell id="jbLwAe7Ewo4H_VJlkpQP-5" value="Search" style="strokeWidth=1;shadow=0;dashed=0;align=center;html=1;shape=mxgraph.mockup.forms.searchBox;strokeColor=#999999;mainText=;strokeColor2=#008cff;fontColor=#666666;fontSize=17;align=left;spacingLeft=3;rounded=0;labelBackgroundColor=none;" parent="7026571954dc6520-1" vertex="1">
          <mxGeometry x="20" y="280" width="220" height="30" as="geometry" />
        </mxCell>
      </root>
    </mxGraphModel>
  </diagram>
</mxfile>
